<svg width="23" height="23" viewBox="0 0 23 23" fill="none" xmlns="http://www.w3.org/2000/svg">
<g clip-path="url(#clip0_48_36)">
<path d="M20.0804 19.4608L15.942 15.3149L20.0804 19.4608ZM18.2354 9.77426C18.2354 11.8539 17.4092 13.8484 15.9387 15.319C14.4681 16.7896 12.4736 17.6157 10.3939 17.6157C8.31426 17.6157 6.31976 16.7896 4.8492 15.319C3.37864 13.8484 2.55249 11.8539 2.55249 9.77426C2.55249 7.69457 3.37864 5.70007 4.8492 4.22951C6.31976 2.75895 8.31426 1.9328 10.3939 1.9328C12.4736 1.9328 14.4681 2.75895 15.9387 4.22951C17.4092 5.70007 18.2354 7.69457 18.2354 9.77426V9.77426Z" stroke="white" stroke-width="2" stroke-linecap="round"/>
</g>
<defs>
<clipPath id="clip0_48_36">
<rect width="22.1406" height="22.1406" fill="white" transform="translate(0.707275 0.0877686)"/>
</clipPath>
</defs>
</svg>
