<svg width="28" height="28" viewBox="0 0 28 28" fill="none" xmlns="http://www.w3.org/2000/svg">
<g clip-path="url(#clip0_48_75)">
<path d="M27.2867 5.81022C26.2987 6.24362 25.2459 6.53089 24.1483 6.67038C25.2775 5.9962 26.1393 4.93677 26.5445 3.65981C25.4917 4.2875 24.3293 4.73086 23.0905 4.97828C22.0909 3.91387 20.6661 3.25464 19.1119 3.25464C16.0963 3.25464 13.6686 5.70228 13.6686 8.70288C13.6686 9.13462 13.7051 9.54976 13.7948 9.94497C9.2665 9.72412 5.2596 7.55379 2.56786 4.24764C2.09793 5.06297 1.82228 5.9962 1.82228 7.00082C1.82228 8.8872 2.7937 10.5594 4.24169 11.5275C3.36658 11.5109 2.50808 11.2568 1.78077 10.8566C1.78077 10.8732 1.78077 10.8948 1.78077 10.9164C1.78077 13.5633 3.6688 15.7619 6.14467 16.2683C5.70131 16.3895 5.21809 16.4477 4.71661 16.4477C4.36789 16.4477 4.01586 16.4277 3.68541 16.3547C4.39114 18.5117 6.39376 20.0975 8.77498 20.149C6.92181 21.5987 4.56882 22.4721 2.02154 22.4721C1.57486 22.4721 1.14644 22.4522 0.718018 22.3974C3.13079 23.9533 5.99024 24.8417 9.07387 24.8417C19.0969 24.8417 24.5767 16.539 24.5767 9.34219C24.5767 9.10141 24.5684 8.86894 24.5568 8.63812C25.6378 7.87095 26.5461 6.91282 27.2867 5.81022Z" fill="#808080"/>
</g>
<defs>
<clipPath id="clip0_48_75">
<rect width="26.5687" height="26.5687" fill="white" transform="translate(0.718018 0.763916)"/>
</clipPath>
</defs>
</svg>
