<svg width="27" height="28" viewBox="0 0 27 28" fill="none" xmlns="http://www.w3.org/2000/svg">
<g clip-path="url(#clip0_48_76)">
<path d="M25.867 6.67546C25.1463 5.39352 24.3642 5.15772 22.7718 5.06805C21.181 4.96012 17.1807 4.91528 13.7152 4.91528C10.243 4.91528 6.24105 4.96012 4.65191 5.06639C3.06277 5.15772 2.279 5.39186 1.55168 6.67546C0.809415 7.95574 0.42749 10.1609 0.42749 14.0433C0.42749 14.0466 0.42749 14.0483 0.42749 14.0483C0.42749 14.0516 0.42749 14.0533 0.42749 14.0533V14.0566C0.42749 17.9223 0.809415 20.1441 1.55168 21.4111C2.279 22.6931 3.06111 22.9255 4.65025 23.0335C6.24105 23.1265 10.243 23.1813 13.7152 23.1813C17.1807 23.1813 21.181 23.1265 22.7734 23.0351C24.3659 22.9272 25.148 22.6947 25.8687 21.4128C26.6176 20.1458 26.9962 17.924 26.9962 14.0582C26.9962 14.0582 26.9962 14.0533 26.9962 14.0499C26.9962 14.0499 26.9962 14.0466 26.9962 14.045C26.9962 10.1609 26.6176 7.95574 25.867 6.67546ZM10.3908 19.0299V9.06664L18.6935 14.0483L10.3908 19.0299Z" fill="#808080"/>
</g>
<defs>
<clipPath id="clip0_48_76">
<rect width="26.5687" height="26.5687" fill="white" transform="translate(0.42749 0.763916)"/>
</clipPath>
</defs>
</svg>
